<svg xmlns="http://www.w3.org/2000/svg" viewBox="0 0 1440 960" width="1440" height="960">
  <defs>
    <linearGradient id="sky3" x1="0" y1="0" x2="0" y2="1">
      <stop offset="0%" stop-color="#020308"/>
      <stop offset="35%" stop-color="#04081a"/>
      <stop offset="65%" stop-color="#071428"/>
      <stop offset="100%" stop-color="#0d1e38"/>
    </linearGradient>
    <linearGradient id="water3" x1="0" y1="0" x2="0" y2="1">
      <stop offset="0%" stop-color="#061428"/>
      <stop offset="50%" stop-color="#030d1e"/>
      <stop offset="100%" stop-color="#010508"/>
    </linearGradient>
    <linearGradient id="lightning3" x1="0" y1="0" x2="0.1" y2="1">
      <stop offset="0%" stop-color="#aaccff" stop-opacity="0.9"/>
      <stop offset="100%" stop-color="#aaccff" stop-opacity="0.1"/>
    </linearGradient>
  </defs>

  <!-- Sky -->
  <rect width="1440" height="960" fill="url(#sky3)"/>

  <!-- Storm clouds -->
  <g fill="#06091a" opacity="0.9">
    <ellipse cx="100" cy="150" rx="220" ry="100"/>
    <ellipse cx="340" cy="120" rx="250" ry="110"/>
    <ellipse cx="600" cy="145" rx="260" ry="105"/>
    <ellipse cx="860" cy="115" rx="240" ry="108"/>
    <ellipse cx="1110" cy="140" rx="255" ry="102"/>
    <ellipse cx="1350" cy="160" rx="210" ry="95"/>
    <ellipse cx="230" cy="230" rx="180" ry="80"/>
    <ellipse cx="720" cy="220" rx="200" ry="85"/>
    <ellipse cx="1220" cy="235" rx="190" ry="80"/>
  </g>
  <g fill="#080c22" opacity="0.8">
    <ellipse cx="150" cy="280" rx="240" ry="90"/>
    <ellipse cx="450" cy="260" rx="260" ry="95"/>
    <ellipse cx="750" cy="275" rx="250" ry="88"/>
    <ellipse cx="1050" cy="258" rx="245" ry="92"/>
    <ellipse cx="1330" cy="280" rx="220" ry="88"/>
  </g>

  <!-- Moon through clouds -->
  <circle cx="1100" cy="120" r="55" fill="#0a1428" opacity="0.8"/>
  <circle cx="1100" cy="120" r="48" fill="#1a2845" opacity="0.5"/>
  <circle cx="1100" cy="120" r="42" fill="#223355" opacity="0.3"/>

  <!-- Lightning bolts -->
  <g fill="none" stroke="#8aadee" stroke-width="2" opacity="0.6">
    <polyline points="280,220 265,290 278,290 258,380"/>
    <polyline points="900,240 888,310 900,310 882,400"/>
    <polyline points="1180,200 1168,270 1180,270 1162,365"/>
  </g>
  <g fill="none" stroke="#c8deff" stroke-width="1" opacity="0.4">
    <polyline points="282,220 267,292 280,292 260,382"/>
    <polyline points="902,240 890,312 902,312 884,402"/>
  </g>

  <!-- Water surface -->
  <rect y="620" width="1440" height="340" fill="url(#water3)"/>

  <!-- Water ripples / waves -->
  <g fill="none" stroke="#0d2244" stroke-width="2" opacity="0.6">
    <ellipse cx="200" cy="650" rx="120" ry="15"/>
    <ellipse cx="500" cy="665" rx="150" ry="18"/>
    <ellipse cx="800" cy="648" rx="130" ry="14"/>
    <ellipse cx="1100" cy="660" rx="145" ry="17"/>
    <ellipse cx="1350" cy="652" rx="110" ry="13"/>
    <ellipse cx="350" cy="700" rx="160" ry="20"/>
    <ellipse cx="700" cy="710" rx="140" ry="18"/>
    <ellipse cx="1000" cy="695" rx="155" ry="19"/>
    <ellipse cx="1280" cy="705" rx="125" ry="16"/>
  </g>

  <!-- Submerged building tops -->
  <g fill="#040b18">
    <!-- Skyscraper tops poking through water -->
    <rect x="80" y="480" width="50" height="145"/>
    <rect x="75" y="480" width="60" height="12"/><!-- ledge -->
    <rect x="180" y="520" width="40" height="105"/>
    <rect x="320" y="495" width="55" height="130"/>
    <rect x="315" y="495" width="65" height="12"/>
    <rect x="460" y="505" width="45" height="120"/>
    <rect x="580" y="475" width="62" height="150"/>
    <rect x="575" y="475" width="72" height="12"/>
    <rect x="710" y="510" width="42" height="115"/>
    <rect x="830" y="488" width="58" height="137"/>
    <rect x="825" y="488" width="68" height="12"/>
    <rect x="960" y="498" width="48" height="127"/>
    <rect x="1080" y="478" width="60" height="147"/>
    <rect x="1075" y="478" width="70" height="12"/>
    <rect x="1210" y="505" width="44" height="120"/>
    <rect x="1330" y="490" width="55" height="135"/>
    <rect x="1325" y="490" width="65" height="12"/>
  </g>

  <!-- Flooded window reflections -->
  <g fill="#0d2244" opacity="0.6">
    <rect x="85" y="490" width="8" height="10"/><rect x="96" y="490" width="8" height="10"/>
    <rect x="85" y="508" width="8" height="10"/><rect x="96" y="508" width="8" height="10"/>
    <rect x="325" y="505" width="9" height="11"/><rect x="337" y="505" width="9" height="11"/>
    <rect x="325" y="520" width="9" height="11"/><rect x="337" y="520" width="9" height="11"/>
    <rect x="585" y="488" width="10" height="12"/><rect x="598" y="488" width="10" height="12"/>
    <rect x="585" y="504" width="10" height="12"/><rect x="598" y="504" width="10" height="12"/>
    <rect x="835" y="498" width="9" height="11"/><rect x="847" y="498" width="9" height="11"/>
    <rect x="1085" y="490" width="10" height="12"/><rect x="1098" y="490" width="10" height="12"/>
    <rect x="1335" y="500" width="9" height="11"/><rect x="1347" y="500" width="9" height="11"/>
  </g>

  <!-- Rain streaks -->
  <g stroke="#1a3366" stroke-width="1" opacity="0.35">
    <line x1="50" y1="300" x2="42" y2="380"/>
    <line x1="130" y1="280" x2="122" y2="360"/>
    <line x1="220" y1="310" x2="212" y2="390"/>
    <line x1="310" y1="295" x2="302" y2="375"/>
    <line x1="400" y1="315" x2="392" y2="395"/>
    <line x1="490" y1="285" x2="482" y2="365"/>
    <line x1="580" y1="305" x2="572" y2="385"/>
    <line x1="670" y1="290" x2="662" y2="370"/>
    <line x1="760" y1="310" x2="752" y2="390"/>
    <line x1="850" y1="280" x2="842" y2="360"/>
    <line x1="940" y1="300" x2="932" y2="380"/>
    <line x1="1030" y1="285" x2="1022" y2="365"/>
    <line x1="1120" y1="315" x2="1112" y2="395"/>
    <line x1="1210" y1="295" x2="1202" y2="375"/>
    <line x1="1300" y1="305" x2="1292" y2="385"/>
    <line x1="1390" y1="290" x2="1382" y2="370"/>
    <line x1="90" y1="420" x2="82" y2="500"/>
    <line x1="250" y1="410" x2="242" y2="490"/>
    <line x1="460" y1="425" x2="452" y2="505"/>
    <line x1="680" y1="415" x2="672" y2="495"/>
    <line x1="900" y1="420" x2="892" y2="500"/>
    <line x1="1140" y1="415" x2="1132" y2="495"/>
    <line x1="1360" y1="408" x2="1352" y2="488"/>
  </g>

  <!-- Water reflection of lightning -->
  <ellipse cx="290" cy="700" rx="60" ry="20" fill="#3366aa" opacity="0.2"/>
  <ellipse cx="910" cy="720" rx="55" ry="18" fill="#3366aa" opacity="0.15"/>

  <!-- Dim stars above clouds -->
  <g fill="#8899cc" opacity="0.2">
    <circle cx="60" cy="30" r="1"/><circle cx="180" cy="18" r="1.2"/><circle cx="400" cy="40" r="1"/>
    <circle cx="650" cy="22" r="1.2"/><circle cx="950" cy="35" r="1"/><circle cx="1200" cy="28" r="1.2"/>
    <circle cx="1420" cy="15" r="1"/>
  </g>
</svg>
