<svg xmlns="http://www.w3.org/2000/svg" viewBox="0 0 96 96" width="96" height="96">
  <!-- Frost Titan - Ice Crystal Golem Boss -->
  <!-- Ice crystal aura -->
  <polygon points="48,2 56,18 72,14 62,28 78,32 62,36 72,50 56,46 48,62 40,46 24,50 34,36 18,32 34,28 24,14 40,18" fill="#0a1e38" opacity="0.5"/>
  <!-- Large ice crystals body shards -->
  <polygon points="48,22 38,48 58,48" fill="#0d2240"/>
  <polygon points="48,22 36,46 42,52" fill="#102850" opacity="0.8"/>
  <polygon points="48,22 60,46 54,52" fill="#102850" opacity="0.8"/>
  <!-- Main body - angular/crystalline -->
  <polygon points="28,38 48,18 68,38 62,68 48,76 34,68" fill="#0d2240"/>
  <polygon points="30,40 48,22 66,40 61,66 48,74 35,66" fill="#122850"/>
  <!-- Inner crystal glow -->
  <polygon points="36,44 48,30 60,44 56,60 48,66 40,60" fill="#1a3866"/>
  <polygon points="40,46 48,36 56,46 53,58 48,62 43,58" fill="#2248aa" opacity="0.7"/>
  <ellipse cx="48" cy="50" rx="8" ry="10" fill="#aaddff" opacity="0.3"/>
  <!-- Head - crystal formation -->
  <polygon points="36,22 48,4 60,22 54,34 48,38 42,34" fill="#0d2240"/>
  <polygon points="38,24 48,8 58,24 53,33 48,37 43,33" fill="#142a4a"/>
  <!-- Ice eye crystals -->
  <polygon points="40,22 44,16 48,22 44,28" fill="#0a1830"/>
  <polygon points="56,22 52,16 48,22 52,28" fill="#0a1830"/>
  <polygon points="41,22 44,18 47,22 44,26" fill="#44aaff" opacity="0.9"/>
  <polygon points="55,22 52,18 49,22 52,26" fill="#44aaff" opacity="0.9"/>
  <circle cx="44" cy="22" r="1.5" fill="#aaddff"/>
  <circle cx="52" cy="22" r="1.5" fill="#aaddff"/>
  <!-- Crown spikes -->
  <polygon points="32,14 36,4 40,16" fill="#0a1a30"/>
  <polygon points="48,4 50,0 52,4" fill="#0a1a30"/>
  <polygon points="64,14 60,4 56,16" fill="#0a1a30"/>
  <!-- Shoulder crystals -->
  <polygon points="20,38 12,28 24,44" fill="#0d2240"/>
  <polygon points="22,36 14,26 26,42" fill="#1a3060" opacity="0.7"/>
  <polygon points="76,38 84,28 72,44" fill="#0d2240"/>
  <polygon points="74,36 82,26 70,42" fill="#1a3060" opacity="0.7"/>
  <!-- Arms - ice shards -->
  <polygon points="16,46 8,60 22,70 26,54" fill="#0d2240"/>
  <polygon points="80,46 88,60 74,70 70,54" fill="#0d2240"/>
  <!-- Ice fist -->
  <polygon points="8,60 2,72 14,76 18,64" fill="#0d2240"/>
  <polygon points="88,60 94,72 82,76 78,64" fill="#0d2240"/>
  <!-- Legs -->
  <polygon points="36,74 28,90 42,92 46,76" fill="#0d2240"/>
  <polygon points="60,74 68,90 54,92 50,76" fill="#0d2240"/>
  <!-- Ice shimmer effects -->
  <line x1="42" y1="30" x2="38" y2="22" stroke="#88ccff" stroke-width="1" opacity="0.5"/>
  <line x1="54" y1="30" x2="58" y2="22" stroke="#88ccff" stroke-width="1" opacity="0.5"/>
  <line x1="34" y1="50" x2="28" y2="42" stroke="#88ccff" stroke-width="1" opacity="0.4"/>
  <line x1="62" y1="50" x2="68" y2="42" stroke="#88ccff" stroke-width="1" opacity="0.4"/>
  <!-- Frost outline -->
  <polygon points="28,38 48,18 68,38 62,68 48,76 34,68" fill="none" stroke="#44aaff" stroke-width="1" opacity="0.4"/>
</svg>
