<svg xmlns="http://www.w3.org/2000/svg" viewBox="0 0 96 96" width="96" height="96">
  <!-- Plague Harbinger - Toxic Bio-Horror Boss -->
  <!-- Outer toxic aura -->
  <circle cx="48" cy="52" r="38" fill="#0a0018" opacity="0.4"/>
  <!-- Tentacle roots -->
  <path d="M 48 62 Q 20 72 12 88" fill="none" stroke="#1a0044" stroke-width="8" stroke-linecap="round"/>
  <path d="M 48 62 Q 76 72 84 88" fill="none" stroke="#1a0044" stroke-width="8" stroke-linecap="round"/>
  <path d="M 48 62 Q 22 78 18 92" fill="none" stroke="#1a0044" stroke-width="6" stroke-linecap="round"/>
  <path d="M 48 62 Q 74 78 78 92" fill="none" stroke="#1a0044" stroke-width="6" stroke-linecap="round"/>
  <path d="M 38 68 Q 18 80 10 96" fill="none" stroke="#220055" stroke-width="5" stroke-linecap="round"/>
  <path d="M 58 68 Q 78 80 86 96" fill="none" stroke="#220055" stroke-width="5" stroke-linecap="round"/>
  <!-- Tentacle tips (sucker ends) -->
  <circle cx="12" cy="88" r="5" fill="#44ff22" opacity="0.6"/>
  <circle cx="84" cy="88" r="5" fill="#44ff22" opacity="0.6"/>
  <circle cx="18" cy="92" r="4" fill="#aa44ff" opacity="0.6"/>
  <circle cx="78" cy="92" r="4" fill="#aa44ff" opacity="0.6"/>
  <!-- Side tentacle arms -->
  <path d="M 30 42 Q 10 36 4 22" fill="none" stroke="#1a0044" stroke-width="7" stroke-linecap="round"/>
  <path d="M 66 42 Q 86 36 92 22" fill="none" stroke="#1a0044" stroke-width="7" stroke-linecap="round"/>
  <circle cx="4" cy="22" r="5" fill="#44ff22" opacity="0.6"/>
  <circle cx="92" cy="22" r="5" fill="#44ff22" opacity="0.6"/>
  <!-- Main body - organic blob -->
  <ellipse cx="48" cy="50" rx="28" ry="26" fill="#0d0025"/>
  <ellipse cx="48" cy="48" rx="24" ry="22" fill="#150035"/>
  <!-- Pustule bumps -->
  <circle cx="36" cy="42" r="7" fill="#1a0040"/>
  <circle cx="60" cy="44" r="8" fill="#1a0040"/>
  <circle cx="44" cy="60" r="6" fill="#1a0040"/>
  <circle cx="56" cy="62" r="5" fill="#1a0040"/>
  <circle cx="38" cy="58" r="4" fill="#1a0040"/>
  <!-- Pustule glow centers -->
  <circle cx="36" cy="42" r="4" fill="#aa22ff" opacity="0.5"/>
  <circle cx="60" cy="44" r="5" fill="#44ff22" opacity="0.4"/>
  <circle cx="44" cy="60" r="3" fill="#aa22ff" opacity="0.5"/>
  <circle cx="56" cy="62" r="3" fill="#44ff22" opacity="0.4"/>
  <!-- Head lobe -->
  <ellipse cx="48" cy="28" rx="20" ry="16" fill="#0d0025"/>
  <ellipse cx="48" cy="26" rx="16" ry="12" fill="#150035"/>
  <!-- Multiple eyes -->
  <circle cx="38" cy="24" r="7" fill="#050012"/>
  <circle cx="58" cy="24" r="7" fill="#050012"/>
  <circle cx="48" cy="30" r="5" fill="#050012"/>
  <circle cx="38" cy="24" r="5" fill="#8800cc"/>
  <circle cx="58" cy="24" r="5" fill="#44ff00"/>
  <circle cx="48" cy="30" r="3.5" fill="#cc00aa"/>
  <!-- Pupils -->
  <circle cx="38" cy="24" r="2.5" fill="#000000"/>
  <circle cx="58" cy="24" r="2.5" fill="#000000"/>
  <circle cx="48" cy="30" r="2" fill="#000000"/>
  <!-- Eye shine -->
  <circle cx="39" cy="23" r="1" fill="#ffffff" opacity="0.6"/>
  <circle cx="59" cy="23" r="1" fill="#ffffff" opacity="0.6"/>
  <!-- Maw / mouth slit -->
  <path d="M 34 36 Q 48 44 62 36" fill="#050012"/>
  <path d="M 36 37 Q 48 42 60 37" fill="#2a0066" opacity="0.5"/>
  <!-- Teeth -->
  <polygon points="38,36 36,42 41,36" fill="#ccaaff" opacity="0.7"/>
  <polygon points="45,36 43,43 48,36" fill="#ccaaff" opacity="0.7"/>
  <polygon points="52,36 50,43 55,36" fill="#ccaaff" opacity="0.7"/>
  <polygon points="59,36 57,42 62,36" fill="#ccaaff" opacity="0.7"/>
  <!-- Toxic drip -->
  <path d="M 42 43 Q 40 52 42 58" fill="none" stroke="#44ff22" stroke-width="2" stroke-linecap="round" opacity="0.6"/>
  <path d="M 54 43 Q 56 52 54 58" fill="none" stroke="#44ff22" stroke-width="2" stroke-linecap="round" opacity="0.6"/>
  <!-- Body outline glow -->
  <ellipse cx="48" cy="50" rx="28" ry="26" fill="none" stroke="#6600cc" stroke-width="1.5" opacity="0.4"/>
</svg>
