<svg width="48" height="48" xmlns="http://www.w3.org/2000/svg">
  <!-- Level 10: Dreadnought Boss -->
  <polygon points="24,2 42,14 44,38 24,46 4,38 4,14" fill="#880000"/>
  <polygon points="24,8 38,18 38,36 24,42 10,36 10,18" fill="#aa0000"/>
  <rect x="18" y="14" width="12" height="10" rx="2" fill="#cc0000"/>
  <circle cx="24" cy="19" r="5" fill="#ff0000"/>
  <circle cx="24" cy="19" r="3" fill="#ffcc00"/>
  <circle cx="24" cy="19" r="1" fill="#ffffff"/>
  <rect x="4" y="20" width="8" height="4" rx="1" fill="#660000"/>
  <rect x="2" y="21" width="4" height="2" fill="#440000"/>
  <rect x="36" y="20" width="8" height="4" rx="1" fill="#660000"/>
  <rect x="42" y="21" width="4" height="2" fill="#440000"/>
  <rect x="16" y="28" width="16" height="4" rx="1" fill="#770000"/>
  <rect x="14" y="32" width="20" height="3" rx="1" fill="#660000"/>
  <rect x="12" y="40" width="8" height="5" rx="1" fill="#ff6600"/>
  <rect x="28" y="40" width="8" height="5" rx="1" fill="#ff6600"/>
  <circle cx="24" cy="43" r="3" fill="#ff9900"/>
</svg>
