<?xml version="1.0" encoding="UTF-8"?>
<!-- SOLARON — The Sun King | Inspired by Daitarn 3 / Voltes V -->
<!-- Solar Gold #F9A825 · Deep Orange #E65100 · White #FAFAFA · Royal Black -->
<svg xmlns="http://www.w3.org/2000/svg" viewBox="0 0 80 100" width="80" height="100">

  <!-- ENERGY AURA (golden glow behind body) -->
  <ellipse cx="40" cy="50" rx="35" ry="42" fill="#F9A825" opacity="0.07"/>

  <!-- FEET (heavy, regal) -->
  <rect x="11" y="90" width="24" height="9"  rx="2" fill="#0D0D0D"/>
  <rect x="10" y="93" width="26" height="6"  rx="1" fill="#1A1A1A"/>
  <rect x="12" y="90" width="22" height="2"  fill="#F9A825"/>
  <rect x="45" y="90" width="24" height="9"  rx="2" fill="#0D0D0D"/>
  <rect x="44" y="93" width="26" height="6"  rx="1" fill="#1A1A1A"/>
  <rect x="46" y="90" width="22" height="2"  fill="#F9A825"/>

  <!-- SHINS (golden armor plates) -->
  <rect x="13" y="68" width="22" height="24" rx="1" fill="#E65100"/>
  <rect x="14" y="69" width="20" height="22" rx="1" fill="#EF6C00"/>
  <!-- Gold front plate -->
  <rect x="15" y="70" width="16" height="12" rx="0.5" fill="#F9A825"/>
  <rect x="16" y="71" width="14" height="10" rx="0.3" fill="#FB8C00"/>
  <rect x="18" y="73" width="10" height="4"  rx="0.3" fill="#FFF9C4" opacity="0.6"/>
  <!-- Gold calf trim -->
  <rect x="14" y="84" width="20" height="2"  fill="#F9A825"/>
  <rect x="47" y="68" width="22" height="24" rx="1" fill="#E65100"/>
  <rect x="48" y="69" width="20" height="22" rx="1" fill="#EF6C00"/>
  <rect x="49" y="70" width="16" height="12" rx="0.5" fill="#F9A825"/>
  <rect x="50" y="71" width="14" height="10" rx="0.3" fill="#FB8C00"/>
  <rect x="52" y="73" width="10" height="4"  rx="0.3" fill="#FFF9C4" opacity="0.6"/>
  <rect x="48" y="84" width="20" height="2"  fill="#F9A825"/>

  <!-- KNEES (ornate golden guard) -->
  <rect x="11" y="62" width="26" height="8"  rx="2" fill="#0D0D0D"/>
  <rect x="12" y="63" width="24" height="6"  rx="1" fill="#1A1A1A"/>
  <!-- Diamond knee gem -->
  <polygon points="24,60 28,64 24,68 20,64" fill="#F9A825"/>
  <polygon points="24,61 27,64 24,67 21,64" fill="#FFF9C4"/>
  <circle cx="24" cy="64" r="1" fill="#FAFAFA"/>
  <rect x="43" y="62" width="26" height="8"  rx="2" fill="#0D0D0D"/>
  <rect x="44" y="63" width="24" height="6"  rx="1" fill="#1A1A1A"/>
  <polygon points="56,60 60,64 56,68 52,64" fill="#F9A825"/>
  <polygon points="56,61 59,64 56,67 53,64" fill="#FFF9C4"/>
  <circle cx="56" cy="64" r="1" fill="#FAFAFA"/>

  <!-- THIGHS (golden, wide) -->
  <rect x="13" y="50" width="22" height="14" rx="1" fill="#E65100"/>
  <rect x="14" y="51" width="20" height="12" rx="1" fill="#EF6C00"/>
  <rect x="15" y="52" width="16" height="4"  rx="0.5" fill="#F9A825"/>
  <rect x="47" y="50" width="22" height="14" rx="1" fill="#E65100"/>
  <rect x="48" y="51" width="20" height="12" rx="1" fill="#EF6C00"/>
  <rect x="49" y="52" width="16" height="4"  rx="0.5" fill="#F9A825"/>

  <!-- WAIST (ceremonial belt) -->
  <rect x="14" y="46" width="52" height="6"  rx="1" fill="#0D0D0D"/>
  <rect x="15" y="47" width="50" height="4"  rx="0.5" fill="#1A1A1A"/>
  <!-- Golden belt ornaments -->
  <rect x="16" y="47" width="12" height="4"  rx="0.5" fill="#F9A825"/>
  <rect x="52" y="47" width="12" height="4"  rx="0.5" fill="#F9A825"/>
  <!-- SUN BUCKLE -->
  <circle cx="40" cy="49" r="5"   fill="#F9A825"/>
  <circle cx="40" cy="49" r="3.5" fill="#FFF9C4"/>
  <circle cx="40" cy="49" r="2"   fill="#F9A825"/>
  <circle cx="40" cy="49" r="1"   fill="#FAFAFA"/>
  <!-- Hip ornament fins -->
  <polygon points="12,48 6,54 14,54"  fill="#E65100"/>
  <polygon points="68,48 74,54 66,54" fill="#E65100"/>

  <!-- TORSO (wide, regal, solar emblem) -->
  <polygon points="10,24 70,24 72,46 8,46"  fill="#E65100"/>
  <polygon points="12,25 68,25 70,45 10,45" fill="#EF6C00"/>
  <!-- White hero front plate -->
  <polygon points="22,25 58,25 56,44 24,44" fill="#FAFAFA"/>
  <polygon points="24,26 56,26 54,43 26,43" fill="#FFFFFF"/>
  <!-- SUN BURST EMBLEM on chest -->
  <circle cx="40" cy="34" r="9"   fill="#F9A825"/>
  <circle cx="40" cy="34" r="7"   fill="#FB8C00"/>
  <circle cx="40" cy="34" r="5"   fill="#F9A825"/>
  <!-- Sun rays -->
  <polygon points="40,24 41.5,28 38.5,28" fill="#FFF9C4"/><!-- top -->
  <polygon points="40,44 41.5,40 38.5,40" fill="#FFF9C4"/><!-- bottom -->
  <polygon points="31,34 35,32.5 35,35.5" fill="#FFF9C4"/><!-- left -->
  <polygon points="49,34 45,32.5 45,35.5" fill="#FFF9C4"/><!-- right -->
  <polygon points="34,27 36,31 33,32"      fill="#FFF9C4"/><!-- top-left -->
  <polygon points="46,27 44,31 47,32"      fill="#FFF9C4"/><!-- top-right -->
  <polygon points="34,41 36,37 33,36"      fill="#FFF9C4"/><!-- bottom-left -->
  <polygon points="46,41 44,37 47,36"      fill="#FFF9C4"/><!-- bottom-right -->
  <!-- Sun core -->
  <circle cx="40" cy="34" r="3"   fill="#FFF9C4"/>
  <circle cx="40" cy="34" r="1.5" fill="#FAFAFA"/>
  <!-- Torso side vents -->
  <rect x="10" y="30" width="4" height="12" rx="0.5" fill="#0D0D0D"/>
  <rect x="11" y="31" width="2" height="3" fill="#F9A825"/>
  <rect x="11" y="36" width="2" height="3" fill="#F9A825"/>
  <rect x="66" y="30" width="4" height="12" rx="0.5" fill="#0D0D0D"/>
  <rect x="67" y="31" width="2" height="3" fill="#F9A825"/>
  <rect x="67" y="36" width="2" height="3" fill="#F9A825"/>

  <!-- MASSIVE SHOULDER CANNONS (Voltes V signature) -->
  <!-- Left cannon system -->
  <rect x="-2" y="18" width="16" height="24" rx="2" fill="#0D0D0D"/>
  <rect x="-1" y="19" width="14" height="22" rx="1" fill="#1A1A1A"/>
  <!-- Triple barrel left -->
  <rect x="0"  y="10" width="4"  height="12" rx="1" fill="#0D0D0D"/>
  <rect x="5"  y="8"  width="4"  height="14" rx="1" fill="#0D0D0D"/>
  <rect x="10" y="10" width="4"  height="12" rx="1" fill="#0D0D0D"/>
  <!-- Barrel glow tips -->
  <circle cx="2"  cy="10" r="1.5" fill="#F9A825" opacity="0.9"/>
  <circle cx="7"  cy="8"  r="1.5" fill="#F9A825" opacity="0.9"/>
  <circle cx="12" cy="10" r="1.5" fill="#F9A825" opacity="0.9"/>
  <!-- Cannon gold accent band -->
  <rect x="-1" y="28" width="14" height="3"  rx="0.5" fill="#F9A825"/>
  <rect x="0"  y="28.5" width="12" height="2" fill="#FFF9C4" opacity="0.7"/>
  <!-- Right cannon system -->
  <rect x="66" y="18" width="16" height="24" rx="2" fill="#0D0D0D"/>
  <rect x="67" y="19" width="14" height="22" rx="1" fill="#1A1A1A"/>
  <!-- Triple barrel right -->
  <rect x="66" y="10" width="4"  height="12" rx="1" fill="#0D0D0D"/>
  <rect x="71" y="8"  width="4"  height="14" rx="1" fill="#0D0D0D"/>
  <rect x="76" y="10" width="4"  height="12" rx="1" fill="#0D0D0D"/>
  <circle cx="68" cy="10" r="1.5" fill="#F9A825" opacity="0.9"/>
  <circle cx="73" cy="8"  r="1.5" fill="#F9A825" opacity="0.9"/>
  <circle cx="78" cy="10" r="1.5" fill="#F9A825" opacity="0.9"/>
  <rect x="67" y="28" width="14" height="3"  rx="0.5" fill="#F9A825"/>
  <rect x="68" y="28.5" width="12" height="2" fill="#FFF9C4" opacity="0.7"/>

  <!-- LEFT ARM (golden mace arm) -->
  <rect x="2"  y="36" width="12" height="10" rx="1" fill="#E65100"/>
  <rect x="3"  y="37" width="10" height="8"  rx="1" fill="#EF6C00"/>
  <rect x="1"  y="46" width="14" height="4"  rx="1.5" fill="#0D0D0D"/>
  <rect x="1"  y="50" width="13" height="12" rx="1" fill="#E65100"/>
  <rect x="2"  y="51" width="11" height="10" rx="1" fill="#EF6C00"/>
  <rect x="3"  y="53" width="8"  height="2"  fill="#F9A825"/>
  <!-- Golden fist -->
  <rect x="1"  y="62" width="14" height="10" rx="2" fill="#F9A825"/>
  <rect x="2"  y="63" width="12" height="8"  rx="1" fill="#FFF9C4"/>
  <!-- RIGHT ARM -->
  <rect x="66" y="36" width="12" height="10" rx="1" fill="#E65100"/>
  <rect x="67" y="37" width="10" height="8"  rx="1" fill="#EF6C00"/>
  <rect x="65" y="46" width="14" height="4"  rx="1.5" fill="#0D0D0D"/>
  <rect x="66" y="50" width="13" height="12" rx="1" fill="#E65100"/>
  <rect x="67" y="51" width="11" height="10" rx="1" fill="#EF6C00"/>
  <rect x="68" y="53" width="8"  height="2"  fill="#F9A825"/>
  <rect x="65" y="62" width="14" height="10" rx="2" fill="#F9A825"/>
  <rect x="66" y="63" width="12" height="8"  rx="1" fill="#FFF9C4"/>

  <!-- NECK -->
  <rect x="33" y="20" width="14" height="5" rx="1" fill="#0D0D0D"/>
  <rect x="34" y="21" width="12" height="3" rx="0.5" fill="#1A1A1A"/>

  <!-- HEAD (Royal crown / solar king) -->
  <rect x="22" y="8"  width="36" height="13" rx="2" fill="#0D0D0D"/>
  <rect x="23" y="9"  width="34" height="11" rx="1" fill="#1A1A1A"/>
  <!-- Golden forehead plate -->
  <rect x="24" y="9"  width="32" height="5"  rx="0.5" fill="#F9A825"/>
  <rect x="25" y="10" width="30" height="3"  rx="0.3" fill="#FFF9C4"/>
  <!-- Visor (golden-orange) -->
  <rect x="24" y="15" width="32" height="4"  rx="0.5" fill="#F9A825"/>
  <rect x="25" y="15.5" width="30" height="3" rx="0.3" fill="#FB8C00"/>
  <rect x="28" y="16"   width="24" height="2" fill="#FFD740" opacity="0.7"/>
  <!-- Chin plate -->
  <rect x="26" y="20" width="28" height="2"  rx="0.5" fill="#1A1A1A"/>
  <!-- Side ornaments -->
  <rect x="18" y="10" width="6"  height="9"  rx="0.5" fill="#E65100"/>
  <rect x="19" y="11" width="4"  height="3"  rx="0.3" fill="#F9A825"/>
  <rect x="19" y="16" width="4"  height="2"  rx="0.3" fill="#F9A825"/>
  <rect x="56" y="10" width="6"  height="9"  rx="0.5" fill="#E65100"/>
  <rect x="57" y="11" width="4"  height="3"  rx="0.3" fill="#F9A825"/>
  <rect x="57" y="16" width="4"  height="2"  rx="0.3" fill="#F9A825"/>

  <!-- SOLAR CROWN (the most regal element — Daitarn/Solaron signature) -->
  <!-- Crown base ring -->
  <rect x="22" y="7"  width="36" height="3"  rx="0.5" fill="#F9A825"/>
  <rect x="23" y="7.5" width="34" height="2" rx="0.3" fill="#FFF9C4"/>
  <!-- Crown spikes (5 solar spikes) -->
  <polygon points="24,7 22,1 28,5"  fill="#F9A825"/>
  <polygon points="32,7 30,1 36,5"  fill="#F9A825"/>
  <polygon points="40,7 38,0 42,0 40,-3" fill="#F9A825"/><!-- center tall spike -->
  <polygon points="48,7 50,1 44,5"  fill="#F9A825"/>
  <polygon points="56,7 58,1 52,5"  fill="#F9A825"/>
  <!-- Spike highlights -->
  <polygon points="25,7 23,2 27,6"  fill="#FFF9C4"/>
  <polygon points="33,7 31,2 35,6"  fill="#FFF9C4"/>
  <polygon points="40,5 39,1 41,1 40,-1" fill="#FFF9C4"/>
  <polygon points="47,7 49,2 45,6"  fill="#FFF9C4"/>
  <polygon points="55,7 57,2 53,6"  fill="#FFF9C4"/>
  <!-- Crown jewels at spike bases -->
  <circle cx="26" cy="7" r="1.2" fill="#FF6D00"/>
  <circle cx="34" cy="7" r="1.2" fill="#FF6D00"/>
  <circle cx="40" cy="7" r="1.5" fill="#FAFAFA"/>
  <circle cx="46" cy="7" r="1.2" fill="#FF6D00"/>
  <circle cx="54" cy="7" r="1.2" fill="#FF6D00"/>
  <!-- Top center sun gem -->
  <circle cx="40" cy="-2" r="2" fill="#F9A825"/>
  <circle cx="40" cy="-2" r="1.2" fill="#FFF9C4"/>
</svg>
